<svg id="Ebene_1" data-name="Ebene 1" xmlns="http://www.w3.org/2000/svg" viewBox="0 0 100 100"><defs><style>.cls-1{fill:#00966e;}.cls-2{fill:#fff;}</style></defs><title>uiicon</title><rect class="cls-1" x="0.2" width="99.8" height="99.8" rx="17" ry="17"/><path class="cls-2" d="M16.84,59.91V33.41H27.66v26.5a8.78,8.78,0,0,0,2,6.14,7.42,7.42,0,0,0,5.76,2.15,7.62,7.62,0,0,0,5.82-2.15,8.61,8.61,0,0,0,2-6.14V33.41H54v26.5a18.38,18.38,0,0,1-2.75,10.16,16.66,16.66,0,0,1-7,6.23,21.45,21.45,0,0,1-9.14,2,18.68,18.68,0,0,1-13-4.81Q16.84,68.65,16.84,59.91Z"/><polygon class="cls-2" points="71.16 77.64 65.94 71.7 71.63 66.69 62.73 57.08 71.22 50.42 62.92 42.68 74.43 30.67 80.14 36.14 74.18 42.37 83.36 50.95 74.37 58 82.94 67.26 71.16 77.64"/><rect class="cls-2" x="68.28" y="14.27" width="9.28" height="9.28" transform="translate(34.73 -46.02) rotate(45)"/></svg>