<svg id="Ebene_1" data-name="Ebene 1" xmlns="http://www.w3.org/2000/svg" viewBox="0 0 250 250"><defs><style>.cls-1{fill:#00966e;}.cls-2{fill:#fff;}</style></defs><title>Zeichenfläche 1 Kopie</title><path class="cls-1" d="M42.67-.09H207.43A42.58,42.58,0,0,1,250,42.5V207.33a42.58,42.58,0,0,1-42.57,42.58H42.67A42.58,42.58,0,0,1,.1,207.33V42.5A42.58,42.58,0,0,1,42.67-.09Z"/><path class="cls-2" d="M41.77,150V83.6H68.86V150a22,22,0,0,0,5,15.38,18.57,18.57,0,0,0,14.42,5.38,19,19,0,0,0,14.57-5.38,21.54,21.54,0,0,0,5-15.38V83.6h26.95V150a46.07,46.07,0,0,1-6.89,25.45A41.65,41.65,0,0,1,110.4,191a53.54,53.54,0,0,1-22.89,5A46.74,46.74,0,0,1,55,184Q41.78,171.88,41.77,150Z"/><polygon class="cls-2" points="177.78 194.4 164.71 179.52 178.96 166.97 156.68 142.9 177.94 126.21 157.15 106.82 185.97 76.74 200.27 90.44 185.35 106.05 208.33 127.54 185.82 145.2 207.28 168.4 177.78 194.4"/><rect class="cls-2" x="170.57" y="35.67" width="23.24" height="23.24" transform="translate(19.91 142.65) rotate(-44.99)"/></svg>